<svg xmlns="http://www.w3.org/2000/svg" width="24" height="24" viewBox="0 0 24 24" fill="none">
  <mask id="path-1-inside-1_333_24933" fill="white">
    <path d="M13.6462 12L20.6587 4.98757C20.7673 4.87945 20.8534 4.75087 20.9119 4.60926C20.9705 4.46765 21.0004 4.31582 20.9999 4.16258C21.0018 4.00968 20.9726 3.85801 20.9139 3.7168C20.8552 3.5756 20.7684 3.44785 20.6587 3.34133C20.5522 3.23163 20.4244 3.14479 20.2832 3.08612C20.142 3.02744 19.9903 2.99817 19.8374 3.00009C19.6842 2.99959 19.5324 3.02949 19.3907 3.08807C19.2491 3.14664 19.1205 3.23273 19.0124 3.34133L12 10.3538L4.98757 3.34133C4.87945 3.23273 4.75087 3.14664 4.60926 3.08807C4.46765 3.02949 4.31582 2.99959 4.16258 3.00009C4.00968 2.99817 3.85801 3.02744 3.7168 3.08612C3.5756 3.14479 3.44785 3.23163 3.34133 3.34133C3.23163 3.44785 3.14479 3.5756 3.08612 3.7168C3.02744 3.85801 2.99817 4.00968 3.00009 4.16258C2.99959 4.31582 3.02949 4.46765 3.08807 4.60926C3.14664 4.75087 3.23273 4.87945 3.34133 4.98757L10.3538 12L3.34133 19.0124C3.23273 19.1205 3.14664 19.2491 3.08807 19.3907C3.02949 19.5324 2.99959 19.6842 3.00009 19.8374C2.99817 19.9903 3.02744 20.142 3.08612 20.2832C3.14479 20.4244 3.23163 20.5522 3.34133 20.6587C3.44785 20.7684 3.5756 20.8552 3.7168 20.9139C3.85801 20.9726 4.00968 21.0018 4.16258 20.9999C4.31582 21.0004 4.46765 20.9705 4.60926 20.9119C4.75087 20.8534 4.87945 20.7673 4.98757 20.6587L12 13.6462L19.0124 20.6587C19.1205 20.7673 19.2491 20.8534 19.3907 20.9119C19.5324 20.9705 19.6842 21.0004 19.8374 20.9999C20.1454 20.9989 20.4405 20.8761 20.6583 20.6583C20.8761 20.4405 20.9989 20.1454 20.9999 19.8374C21.0004 19.6842 20.9705 19.5324 20.9119 19.3907C20.8534 19.2491 20.7673 19.1205 20.6587 19.0124L13.6462 12Z"/>
  </mask>
  <path d="M13.6462 12L10.8178 9.17157L7.98938 12L10.8178 14.8284L13.6462 12ZM20.6587 4.98757L17.8367 2.15271L17.8302 2.15914L20.6587 4.98757ZM20.9999 4.16258L17.0002 4.11246L16.9998 4.14404L16.9999 4.17562L20.9999 4.16258ZM20.6587 3.34133L17.7888 6.12769L17.8299 6.17007L17.8723 6.21122L20.6587 3.34133ZM19.8374 3.00009L19.8244 7.00007L19.856 7.00017L19.8875 6.99977L19.8374 3.00009ZM19.0124 3.34133L21.8409 6.16977L21.8473 6.16332L19.0124 3.34133ZM12 10.3538L9.17157 13.1822L12 16.0106L14.8284 13.1822L12 10.3538ZM4.98757 3.34133L2.15271 6.16333L2.15914 6.16976L4.98757 3.34133ZM4.16258 3.00009L4.11246 6.99977L4.14404 7.00017L4.17562 7.00007L4.16258 3.00009ZM3.34133 3.34133L6.12769 6.21122L6.17007 6.17007L6.21122 6.12769L3.34133 3.34133ZM3.00009 4.16258L7.00007 4.17562L7.00017 4.14404L6.99977 4.11246L3.00009 4.16258ZM3.34133 4.98757L6.16977 2.15913L6.16332 2.15271L3.34133 4.98757ZM10.3538 12L13.1822 14.8284L16.0106 12L13.1822 9.17157L10.3538 12ZM3.34133 19.0124L6.16333 21.8473L6.16976 21.8409L3.34133 19.0124ZM3.00009 19.8374L6.99977 19.8875L7.00017 19.856L7.00007 19.8244L3.00009 19.8374ZM3.34133 20.6587L6.21122 17.8723L6.17007 17.8299L6.12769 17.7888L3.34133 20.6587ZM4.16258 20.9999L4.17562 16.9999L4.14404 16.9998L4.11246 17.0002L4.16258 20.9999ZM4.98757 20.6587L2.15913 17.8302L2.15271 17.8367L4.98757 20.6587ZM12 13.6462L14.8284 10.8178L12 7.98938L9.17157 10.8178L12 13.6462ZM19.0124 20.6587L21.8473 17.8367L21.8409 17.8302L19.0124 20.6587ZM19.8374 20.9999L19.8246 16.9999L19.8244 16.9999L19.8374 20.9999ZM20.9999 19.8374L16.9999 19.8244L16.9999 19.8246L20.9999 19.8374ZM20.6587 19.0124L17.8302 21.8409L17.8367 21.8473L20.6587 19.0124ZM16.4747 14.8284L23.4871 7.816L17.8302 2.15914L10.8178 9.17157L16.4747 14.8284ZM23.4807 7.82242C23.9642 7.34108 24.3474 6.76862 24.6082 6.13817L17.2157 3.08035C17.3593 2.73312 17.5704 2.41782 17.8367 2.15271L23.4807 7.82242ZM24.6082 6.13817C24.869 5.50773 25.0021 4.8318 24.9999 4.14953L16.9999 4.17562C16.9987 3.79984 17.072 3.42757 17.2157 3.08035L24.6082 6.13817ZM24.9996 4.21269C25.0083 3.51618 24.875 2.82519 24.6077 2.18194L17.2201 5.25167C17.0701 4.89082 16.9953 4.50319 17.0002 4.11246L24.9996 4.21269ZM24.6077 2.18194C24.3404 1.53869 23.9448 0.956674 23.445 0.47145L17.8723 6.21122C17.592 5.93902 17.37 5.61252 17.2201 5.25167L24.6077 2.18194ZM23.5286 0.554982C23.0433 0.0552115 22.4613 -0.340399 21.8181 -0.607686L18.7483 6.77992C18.3875 6.62998 18.061 6.40805 17.7888 6.12769L23.5286 0.554982ZM21.8181 -0.607686C21.1748 -0.874972 20.4838 -1.00833 19.7873 -0.999598L19.8875 6.99977C19.4968 7.00467 19.1092 6.92986 18.7483 6.77992L21.8181 -0.607686ZM19.8505 -0.99989C19.1682 -1.00211 18.4923 -0.868985 17.8618 -0.608205L20.9197 6.78434C20.5724 6.92797 20.2001 7.00129 19.8244 7.00007L19.8505 -0.99989ZM17.8618 -0.608205C17.2314 -0.347423 16.6589 0.0358262 16.1776 0.51935L21.8473 6.16332C21.5822 6.42963 21.2669 6.64071 20.9197 6.78434L17.8618 -0.608205ZM16.184 0.512908L9.17157 7.52534L14.8284 13.1822L21.8409 6.16976L16.184 0.512908ZM14.8284 7.52534L7.816 0.512908L2.15914 6.16976L9.17157 13.1822L14.8284 7.52534ZM7.82242 0.51935C7.34109 0.0358224 6.76863 -0.347425 6.13817 -0.608205L3.08035 6.78434C2.73311 6.64071 2.41782 6.42963 2.15271 6.16332L7.82242 0.51935ZM6.13817 -0.608205C5.50771 -0.868984 4.83179 -1.00211 4.14953 -0.99989L4.17562 7.00007C3.79985 7.00129 3.42758 6.92797 3.08035 6.78434L6.13817 -0.608205ZM4.21269 -0.999598C3.51617 -1.00833 2.82519 -0.874973 2.18194 -0.607686L5.25167 6.77992C4.89082 6.92986 4.50319 7.00467 4.11246 6.99977L4.21269 -0.999598ZM2.18194 -0.607686C1.53869 -0.340399 0.956674 0.0552118 0.47145 0.554982L6.21122 6.12769C5.93902 6.40805 5.61252 6.62998 5.25167 6.77992L2.18194 -0.607686ZM0.554982 0.47145C0.0552118 0.956674 -0.340399 1.53869 -0.607686 2.18194L6.77992 5.25167C6.62998 5.61252 6.40805 5.93902 6.12769 6.21122L0.554982 0.47145ZM-0.607686 2.18194C-0.874973 2.82519 -1.00833 3.51617 -0.999598 4.21269L6.99977 4.11246C7.00467 4.50319 6.92986 4.89082 6.77992 5.25167L-0.607686 2.18194ZM-0.99989 4.14953C-1.00211 4.83179 -0.868984 5.50771 -0.608205 6.13817L6.78434 3.08035C6.92797 3.42758 7.00129 3.79985 7.00007 4.17562L-0.99989 4.14953ZM-0.608205 6.13817C-0.347425 6.76863 0.0358224 7.34109 0.51935 7.82242L6.16332 2.15271C6.42963 2.41782 6.64071 2.73311 6.78434 3.08035L-0.608205 6.13817ZM0.512908 7.816L7.52534 14.8284L13.1822 9.17157L6.16976 2.15914L0.512908 7.816ZM7.52534 9.17157L0.512908 16.184L6.16976 21.8409L13.1822 14.8284L7.52534 9.17157ZM0.51935 16.1776C0.0358262 16.6589 -0.347423 17.2314 -0.608205 17.8618L6.78434 20.9197C6.64071 21.2669 6.42963 21.5822 6.16332 21.8473L0.51935 16.1776ZM-0.608205 17.8618C-0.868985 18.4923 -1.00211 19.1682 -0.99989 19.8505L7.00007 19.8244C7.00129 20.2001 6.92797 20.5724 6.78434 20.9197L-0.608205 17.8618ZM-0.999598 19.7873C-1.00833 20.4838 -0.874972 21.1748 -0.607686 21.8181L6.77992 18.7483C6.92986 19.1092 7.00467 19.4968 6.99977 19.8875L-0.999598 19.7873ZM-0.607686 21.8181C-0.340399 22.4613 0.0552115 23.0433 0.554982 23.5286L6.12769 17.7888C6.40805 18.061 6.62998 18.3875 6.77992 18.7483L-0.607686 21.8181ZM0.47145 23.445C0.956674 23.9448 1.53869 24.3404 2.18194 24.6077L5.25167 17.2201C5.61252 17.37 5.93902 17.592 6.21122 17.8723L0.47145 23.445ZM2.18194 24.6077C2.82519 24.875 3.51618 25.0083 4.21269 24.9996L4.11246 17.0002C4.50319 16.9953 4.89082 17.0701 5.25167 17.2201L2.18194 24.6077ZM4.14953 24.9999C4.8318 25.0021 5.50773 24.869 6.13817 24.6082L3.08035 17.2157C3.42757 17.072 3.79984 16.9987 4.17562 16.9999L4.14953 24.9999ZM6.13817 24.6082C6.76862 24.3474 7.34108 23.9642 7.82242 23.4807L2.15271 17.8367C2.41782 17.5704 2.73312 17.3593 3.08035 17.2157L6.13817 24.6082ZM7.816 23.4871L14.8284 16.4747L9.17157 10.8178L2.15914 17.8302L7.816 23.4871ZM9.17157 16.4747L16.184 23.4871L21.8409 17.8302L14.8284 10.8178L9.17157 16.4747ZM16.1776 23.4807C16.6589 23.9642 17.2314 24.3474 17.8618 24.6082L20.9197 17.2157C21.2669 17.3593 21.5822 17.5704 21.8473 17.8367L16.1776 23.4807ZM17.8618 24.6082C18.4923 24.869 19.1682 25.0021 19.8505 24.9999L19.8244 16.9999C20.2002 16.9987 20.5724 17.072 20.9197 17.2157L17.8618 24.6082ZM19.8503 24.9999C21.2147 24.9955 22.522 24.4516 23.4868 23.4868L17.8299 17.8299C18.3591 17.3007 19.0762 17.0023 19.8246 16.9999L19.8503 24.9999ZM23.4868 23.4868C24.4516 22.522 24.9955 21.2147 24.9999 19.8503L16.9999 19.8246C17.0023 19.0762 17.3007 18.3591 17.8299 17.8299L23.4868 23.4868ZM24.9999 19.8505C25.0021 19.1682 24.869 18.4923 24.6082 17.8618L17.2157 20.9197C17.072 20.5724 16.9987 20.2002 16.9999 19.8244L24.9999 19.8505ZM24.6082 17.8618C24.3474 17.2314 23.9642 16.6589 23.4807 16.1776L17.8367 21.8473C17.5704 21.5822 17.3593 21.2669 17.2157 20.9197L24.6082 17.8618ZM23.4871 16.184L16.4747 9.17157L10.8178 14.8284L17.8302 21.8409L23.4871 16.184Z" fill="#A2A0AC" mask="url(#path-1-inside-1_333_24933)"/>
</svg>